<svg xmlns="http://www.w3.org/2000/svg" viewBox="0 0 512 512" role="img" aria-label="GeoSnap icon">
  <defs>
    <linearGradient id="bg" x1="0" y1="0" x2="1" y2="1">
      <stop offset="0%" stop-color="#10203b" />
      <stop offset="100%" stop-color="#06080f" />
    </linearGradient>
    <linearGradient id="pin" x1="0" y1="0" x2="0" y2="1">
      <stop offset="0%" stop-color="#E8FF47" />
      <stop offset="100%" stop-color="#A9BF23" />
    </linearGradient>
  </defs>
  <rect width="512" height="512" rx="112" fill="url(#bg)" />
  <g opacity="0.88" fill="none" stroke="#1A73E8" stroke-width="16">
    <path d="M80 356c72-56 152-68 240-44" />
    <path d="M120 272c88-36 172-34 272 4" />
    <path d="M84 196c86-34 182-36 344 8" />
  </g>
  <path d="M260 84c-64 0-116 52-116 116 0 89 116 229 116 229s116-140 116-229c0-64-52-116-116-116zm0 164a48 48 0 1 1 0-96 48 48 0 0 1 0 96z" fill="url(#pin)" />
  <circle cx="260" cy="200" r="24" fill="#0A0A0F" />
</svg>
